<svg id="Layer_1" data-name="Layer 1" xmlns="http://www.w3.org/2000/svg" viewBox="0 0 420.03 85.36"><defs><style>.cls-1{fill:#ffffff;}.cls-2{fill:#ffffff;}</style></defs><title>logo</title><path class="cls-1" d="M152.17,52.72V75.28h26.08V52.72h7v53.92h-7V81.36H152.17v25.28h-7V52.72h7Z" transform="translate(-54.49 -23.7)"/><path class="cls-1" d="M227.6,87c0,14.32-9.92,20.56-19.28,20.56-10.48,0-18.56-7.68-18.56-19.92,0-13,8.48-20.56,19.2-20.56C220.08,67,227.6,75.12,227.6,87Zm-30.72.4c0,8.48,4.88,14.88,11.76,14.88,6.72,0,11.76-6.32,11.76-15,0-6.56-3.28-14.88-11.6-14.88S196.88,80,196.88,87.36Z" transform="translate(-54.49 -23.7)"/><path class="cls-1" d="M231.92,78.4c0-4-.08-7.28-0.32-10.48h6.16l0.32,6.24h0.24A13.35,13.35,0,0,1,250.48,67a11.45,11.45,0,0,1,11,7.76h0.16a16,16,0,0,1,4.32-5A13.21,13.21,0,0,1,274.48,67c5.12,0,12.72,3.36,12.72,16.8v22.8h-6.88V84.72c0-7.44-2.72-11.92-8.4-11.92-4,0-7.12,3-8.32,6.4a11.58,11.58,0,0,0-.56,3.52v23.92h-6.88V83.44c0-6.16-2.72-10.64-8.08-10.64-4.4,0-7.6,3.52-8.72,7a9.71,9.71,0,0,0-.56,3.44v23.36h-6.88V78.4Z" transform="translate(-54.49 -23.7)"/><path class="cls-1" d="M298,88.56c0.16,9.52,6.24,13.44,13.28,13.44A25.46,25.46,0,0,0,322,100l1.2,5a31.37,31.37,0,0,1-12.88,2.4c-11.92,0-19-7.84-19-19.52S298.16,67,309.44,67c12.64,0,16,11.12,16,18.24a26.55,26.55,0,0,1-.24,3.28H298Zm20.64-5c0.08-4.48-1.84-11.44-9.76-11.44-7.12,0-10.24,6.56-10.8,11.44h20.56Z" transform="translate(-54.49 -23.7)"/><path class="cls-1" d="M329.84,99.44a18.45,18.45,0,0,0,9.28,2.8c5.12,0,7.52-2.56,7.52-5.76,0-3.36-2-5.2-7.2-7.12-7-2.48-10.24-6.32-10.24-11,0-6.24,5-11.36,13.36-11.36a19.33,19.33,0,0,1,9.52,2.4l-1.76,5.12a15.07,15.07,0,0,0-7.92-2.24c-4.16,0-6.48,2.4-6.48,5.28,0,3.2,2.32,4.64,7.36,6.56,6.72,2.56,10.16,5.92,10.16,11.68,0,6.8-5.28,11.6-14.48,11.6a22.08,22.08,0,0,1-10.88-2.64Z" transform="translate(-54.49 -23.7)"/><path class="cls-1" d="M367,57a4.36,4.36,0,0,1-8.72,0,4.29,4.29,0,0,1,4.4-4.4A4.18,4.18,0,0,1,367,57Zm-7.84,49.6V67.92h7v38.72h-7Z" transform="translate(-54.49 -23.7)"/><path class="cls-1" d="M407.92,49.84v46.8c0,3.44.08,7.36,0.32,10h-6.32l-0.32-6.72h-0.16c-2.16,4.32-6.88,7.6-13.2,7.6-9.36,0-16.56-7.92-16.56-19.68C371.6,75,379.6,67,389,67,395,67,399,69.84,400.72,73h0.16V49.84h7Zm-7,33.84a12.42,12.42,0,0,0-.32-3,10.35,10.35,0,0,0-10.16-8.16c-7.28,0-11.6,6.4-11.6,15,0,7.84,3.84,14.32,11.44,14.32a10.58,10.58,0,0,0,10.32-8.4,12.22,12.22,0,0,0,.32-3V83.68Z" transform="translate(-54.49 -23.7)"/><path class="cls-1" d="M419,88.56c0.16,9.52,6.24,13.44,13.28,13.44A25.45,25.45,0,0,0,443,100l1.2,5a31.38,31.38,0,0,1-12.88,2.4c-11.92,0-19-7.84-19-19.52S419.12,67,430.4,67c12.64,0,16,11.12,16,18.24a26.55,26.55,0,0,1-.24,3.28H419Zm20.64-5c0.08-4.48-1.84-11.44-9.76-11.44-7.12,0-10.24,6.56-10.8,11.44H439.6Z" transform="translate(-54.49 -23.7)"/><path class="cls-1" d="M351.52,66.56l0,0Z" transform="translate(-54.49 -23.7)"/><path class="cls-1" d="M291.66,66.52l0,0Z" transform="translate(-54.49 -23.7)"/><path class="cls-1" d="M279,66.05l0,0Z" transform="translate(-54.49 -23.7)"/><path class="cls-2" d="M97.25,57.65c-15.49,0-28,11.51-28,25.7v24.19a1.52,1.52,0,0,0,1.51,1.52H77a1.52,1.52,0,0,0,1.51-1.52V83.35c0-9,8.37-16.36,18.69-16.36s18.69,7.32,18.69,16.36v24.19a1.52,1.52,0,0,0,1.51,1.52h6.32a1.52,1.52,0,0,0,1.51-1.52V83.35C125.29,69.15,112.73,57.65,97.25,57.65Z" transform="translate(-54.49 -23.7)"/><path class="cls-2" d="M139.84,66l0,0L98.38,24.19l-0.08-.08a1.52,1.52,0,0,0-2.1,0l-0.08.08L78.55,41.92V28.79A1.51,1.51,0,0,0,77,27.27H70.72a1.51,1.51,0,0,0-1.51,1.52V51.35L54.69,66l0,0a0.56,0.56,0,0,0-.15.37,0.57,0.57,0,0,0,.16.39h0a0.56,0.56,0,0,0,.39.16H66.23a1.53,1.53,0,0,0,1.07-.44l0,0L97.25,36.34l29.91,30.19,0,0a1.54,1.54,0,0,0,1.07.44h11.16A0.57,0.57,0,0,0,139.84,66Z" transform="translate(-54.49 -23.7)"/><path class="cls-1" d="M474.52,67.71a1.85,1.85,0,1,1-1.85-1.8A1.81,1.81,0,0,1,474.52,67.71Zm-3.25,0a1.4,1.4,0,0,0,1.41,1.44,1.38,1.38,0,0,0,1.38-1.43A1.39,1.39,0,1,0,471.27,67.71Zm1.11,0.95H472v-1.8a3.64,3.64,0,0,1,.69-0.06,1.13,1.13,0,0,1,.63.13,0.5,0.5,0,0,1,.18.4,0.46,0.46,0,0,1-.37.42v0a0.53,0.53,0,0,1,.33.44,1.37,1.37,0,0,0,.13.45H473.1a1.55,1.55,0,0,1-.14-0.44,0.32,0.32,0,0,0-.37-0.29h-0.2v0.73Zm0-1h0.2c0.23,0,.42-0.08.42-0.26s-0.12-.28-0.38-0.28a1,1,0,0,0-.23,0v0.52Z" transform="translate(-54.49 -23.7)"/></svg>